{"title":"A.Million.Ways.To.Die.In.The.West.2014.AVI.BRRip.720p.DivX.NLsub","uid":10942046,"size":2726295815,"categoryP":"video","categoryS":"hd___movies","magnet":"?xt=urn:btih:d7c27f6b5215b02f0e18b4c28a3971270fb6c9bf&amp;dn=A.Million.Ways.To.Die.In.The.West.2014.AVI.BRRip.720p.DivX.NLsub&amp;tr=udp%3A%2F%2Ftracker.openbittorrent.com%3A80&amp;tr=udp%3A%2F%2Fopen.demonii.com%3A1337&amp;tr=udp%3A%2F%2Ftracker.coppersurfer.tk%3A6969&amp;tr=udp%3A%2F%2Fexodus.desync.com%3A6969","seeders":2,"leechers":0,"uploader":"HOLLANDmovies","files":-1,"time":1409551132,"description":"A MILLION WAYS TO DIE IN THE WEST 2014 (DivX 720p) \n\nINFO\n\nNL ondertiteld Dankzij: Quality over quantity ! TOP!\nHardcoded subtitle dutch\n\nA Million Ways to Die in the West (2014)\n116 min - Comedy | Western\n\nAs a cowardly farmer begins to fall for the mysterious new woman in town, he must put his new-found courage to the test when her husband, a notorious gun-slinger, announces his arrival.\n\nDirector: Seth MacFarlane\nWriters: Seth MacFarlane, Alec Sulkin\nStars: Seth MacFarlane, Charlize Theron, Liam Neeson \n\nGENERAL:\n\nComplete name : A.Million.Ways.To.Die.In.The.West.2014.AVI.BRRip.720p.DivX.NLsub.{Th3Sp3cialist}.Movie.avi\nFormat : AVI\nFormat/Info : Audio Video Interleave\nFormat profile : OpenDML\nFile size : 2.54 GiB\nDuration : 1h 55mn\nOverall bit rate : 3 135 Kbps\n\nVideo\nID : 0\nOriginal Source\t: A Million Ways to Die in the West (2014) 1080p WEBRip [G2G]\nFormat : xvid\nCodec ID : xvid\nDuration : 1h 55mn\nBit rate : 2 803 Kbps\nWidth : 1 280 pixels\nHeight : 720 pixels\nDisplay aspect ratio : 16:9\nFrame rate : 23.976 fps\nBits/(Pixel*Frame) : 0.127\nStream size : 2.27 GiB (89%)\n\nAudio\nID : 1\nFormat : MPEG Audio\nFormat version : Version 1\nFormat profile : Layer 3\nMode : Joint stereo\nMode extension : MS Stereo\nCodec ID : 55\nCodec ID/Hint : MP3\nDuration : 1h 55mn\nBit rate mode : Constant\nBit rate : 320 Kbps\nChannel(s) : 2 channels\nSampling rate : 48.0 KHz\nCompression mode : Lossy\nStream size : 265 MiB (10%)\nAlignment : Aligned on interleaves\nInterleave, duration : 24 ms (0.58 video frame)\n &lt;a href=&quot;\nhttp://bayimg.com/oaaCGaagC&quot; rel=&quot;nofollow&quot; target=&quot;_NEW&quot;&gt;\nhttp://bayimg.com/oaaCGaagC&lt;/a&gt; &lt;a href=&quot;\nhttp://bayimg.com/oAACiAaGc&quot; rel=&quot;nofollow&quot; target=&quot;_NEW&quot;&gt;\nhttp://bayimg.com/oAACiAaGc&lt;/a&gt; &lt;a href=&quot;\nhttp://bayimg.com/oaacjaaGc&quot; rel=&quot;nofollow&quot; target=&quot;_NEW&quot;&gt;\nhttp://bayimg.com/oaacjaaGc&lt;/a&gt; &lt;a href=&quot;\nhttp://bayimg.com/OaaCLAAgC&quot; rel=&quot;nofollow&quot; target=&quot;_NEW&quot;&gt;\nhttp://bayimg.com/OaaCLAAgC&lt;/a&gt;","torrent":{"xt":"urn:btih:d7c27f6b5215b02f0e18b4c28a3971270fb6c9bf","amp;dn":"A.Million.Ways.To.Die.In.The.West.2014.AVI.BRRip.720p.DivX.NLsub","amp;tr":["udp%3A%2F%2Ftracker.openbittorrent.com%3A80","udp%3A%2F%2Fopen.demonii.com%3A1337","udp%3A%2F%2Ftracker.coppersurfer.tk%3A6969","udp%3A%2F%2Fexodus.desync.com%3A6969"],"infoHash":"d7c27f6b5215b02f0e18b4c28a3971270fb6c9bf","infoHashBuffer":{"type":"Buffer","data":[215,194,127,107,82,21,176,47,14,24,180,194,138,57,113,39,15,182,201,191]},"announce":[],"urlList":[]}}